# xmcd
#
# Track frame offsets:
#	150
#	15815
#	34732
#	48232
#	61864
#	76247
#	86750
#	98340
#	111145
#	122175
#	132780
#	145110
#	159742
#	167622
#	178845
#
# Disc length: 2617
#
# Revision: 2
# Processed by: cddbd v1.5.1PL0 Copyright (c) Steve Scherf et al.
# Submitted via: audiograbber 1.82.02
# Normalized: r1:DSETVAR1
#
DISCID=b20a370f
DTITLE=Various Artist - MAX (The Greatest No1 Country Rock Album) - Disc 2
DYEAR=1900
DGENRE=Country
TTITLE0=Willie Nelson - Mamas Don't Let Your Babies Grow Up To Be Cowboys
TTITLE1=Kris Kristofferson - Me and Bobby McGee
TTITLE2=Johnny Russell - Catfish John
TTITLE3=Ricky Skaggs - Crying My Heart Out Over You
TTITLE4=The Bellamy Brothers - If I Said You Had a Beautiful Body Would You Hold It Against Me
TTITLE5=George Hamilton IV - Abilene
TTITLE6=Sammi Smith - Help Me Make It Through The Night
TTITLE7=Ricky Van Shelton - Wherever She Is
TTITLE8=Jonny Russell - Blue Eyes Crying In The Rain
TTITLE9=Patsy Cline - Love Sick Blues
TTITLE10=Jack Blanchard and Misty Morgan - Tennesse Birdwalk
TTITLE11=Jeannie C Riley - Harper Valley PTA
TTITLE12=Roger Miller - Dang Me
TTITLE13=Don Gibson - Oh Lonesome Me
TTITLE14=Black Sorrows - Harley and Rose
EXTD=
EXTT0=
EXTT1=
EXTT2=
EXTT3=
EXTT4=
EXTT5=
EXTT6=
EXTT7=
EXTT8=
EXTT9=
EXTT10=
EXTT11=
EXTT12=
EXTT13=
EXTT14=
PLAYORDER=
